<?xml version="1.0" encoding="UTF-8" standalone="no"?>
<svg
   xmlns:dc="http://purl.org/dc/elements/1.1/"
   xmlns:cc="http://creativecommons.org/ns#"
   xmlns:rdf="http://www.w3.org/1999/02/22-rdf-syntax-ns#"
   xmlns:svg="http://www.w3.org/2000/svg"
   xmlns="http://www.w3.org/2000/svg"
   xmlns:sodipodi="http://sodipodi.sourceforge.net/DTD/sodipodi-0.dtd"
   xmlns:inkscape="http://www.inkscape.org/namespaces/inkscape"
   width="146.57248mm"
   height="23.8125mm"
   viewBox="0 0 146.57248 23.8125"
   version="1.1"
   id="svg8"
   inkscape:version="0.92.2 (5c3e80d, 2017-08-06)"
   sodipodi:docname="logo.svg">
  <metadata
     id="metadata20">
    <rdf:RDF>
      <cc:Work
         rdf:about="">
        <dc:format>image/svg+xml</dc:format>
        <dc:type
           rdf:resource="http://purl.org/dc/dcmitype/StillImage" />
      </cc:Work>
    </rdf:RDF>
  </metadata>
  <defs
     id="defs2" />
  <sodipodi:namedview
     id="base"
     pagecolor="#ffffff"
     bordercolor="#666666"
     borderopacity="1.0"
     inkscape:pageopacity="0.0"
     inkscape:pageshadow="2"
     inkscape:zoom="1.4"
     inkscape:cx="186.26105"
     inkscape:cy="12.511192"
     inkscape:document-units="mm"
     inkscape:current-layer="layer1"
     showgrid="true"
     showguides="false"
     inkscape:window-width="1920"
     inkscape:window-height="1027"
     inkscape:window-x="-8"
     inkscape:window-y="-8"
     inkscape:window-maximized="1">
    <inkscape:grid
       type="xygrid"
       id="grid3850"
       originx="-29.257292"
       originy="-160.21042" />
  </sodipodi:namedview>
  <g
     inkscape:label="Layer 1"
     inkscape:groupmode="layer"
     id="layer1"
     transform="translate(-29.257292,-112.97708)">
    <g
       id="g3701"
       transform="matrix(0.26458333,0,0,0.26458333,32.446304,105.77396)" />
    <path
       inkscape:connector-curvature="0"
       d="m 52.540625,113.50625 v 22.75417 H 29.786458 v -22.75417 h 22.754167 m 0.529166,-0.52916 H 29.257292 v 23.8125 h 23.812499 z"
       id="path3699"
       style="stroke-width:0.26458332" />
    <path
       id="path3703"
       d="m 44.126875,118.87729 -0.105834,-0.34395 h -0.820208 l -0.07938,-0.34396 h -0.79375 l 0.05292,0.34396 h -2.434167 l 0.05292,-0.34396 h -0.79375 l -0.07937,0.34396 h -0.820208 l -0.105834,0.37041 h 0.846667 l -0.07937,0.39688 h -0.873125 l -0.132292,0.42333 h 0.926042 l -0.105833,0.42333 h -0.9525 l -0.15875,0.50271 h 1.005416 l -0.105833,0.52917 H 37.53875 l -0.185208,0.58208 h 1.084791 l -0.132291,0.66146 h -1.137709 l -0.211666,0.71438 h 1.217083 l -0.15875,0.79375 h -1.27 l -0.264583,0.89958 h 1.349375 l -0.211667,1.00542 h -1.42875 L 35.818958,127 h 1.534584 l -0.264584,1.29646 h -1.640416 l -0.449792,1.50813 h 1.772708 l -0.370416,1.7727 h 1.905 l 0.211666,-1.7727 h 5.265208 l 0.211667,1.7727 H 45.9525 l -0.370417,-1.7727 h 1.772708 L 46.905,128.29646 H 45.264583 L 45,127 h 1.534583 l -0.343958,-1.13771 h -1.42875 l -0.211667,-1.00541 h 1.349375 L 45.635,123.95729 h -1.296459 l -0.15875,-0.79375 h 1.190625 l -0.211666,-0.71437 h -1.137709 l -0.132291,-0.66146 h 1.084791 l -0.15875,-0.60854 H 43.782916 L 43.677083,120.65 h 0.978958 l -0.15875,-0.50271 h -0.9525 l -0.105833,-0.44979 h 0.899583 l -0.132291,-0.42333 h -0.873125 l -0.05292,-0.39688 z m -4.233333,0 h 2.513541 l 0.05292,0.39688 h -2.619375 z m -0.105834,0.82021 h 2.725208 l 0.05292,0.44979 h -2.831041 z m -0.105833,0.9525 h 2.963333 l 0.07938,0.52917 H 39.6025 Z m 3.915833,7.64646 H 38.702917 L 38.861667,127 H 43.4125 Z m -0.3175,-2.43417 h -4.259791 l 0.132291,-1.00541 h 4.021667 z m -0.238125,-1.905 h -3.783541 l 0.105833,-0.79375 h 3.598333 z m -0.185208,-1.53458 H 39.44375 l 0.07937,-0.66146 h 3.25438 z"
       inkscape:connector-curvature="0"
       style="stroke-width:0.26458332" />
    <path
       inkscape:connector-curvature="0"
       id="path71"
       style="font-style:normal;font-variant:normal;font-weight:normal;font-stretch:normal;font-size:64px;line-height:1.25;font-family:Calibri;-inkscape-font-specification:Calibri;letter-spacing:0px;word-spacing:0px;fill:#000000;fill-opacity:1;stroke:none;stroke-width:0.26458332"
       d="m 67.061221,125.87145 q 0,0.0744 -0.03307,0.12402 -0.03307,0.0496 -0.115756,0.0827 -0.07441,0.0331 -0.214974,0.0496 -0.14056,0.0165 -0.347265,0.0165 -0.239779,0 -0.388607,-0.0248 -0.14056,-0.0165 -0.23151,-0.0579 -0.08268,-0.0413 -0.132292,-0.0992 -0.04134,-0.0661 -0.06615,-0.15709 l -0.983919,-2.61276 q -0.198438,-0.52917 -0.438216,-0.90124 -0.239779,-0.37207 -0.553972,-0.61185 -0.305924,-0.24805 -0.702799,-0.3638 -0.396875,-0.11576 -0.892969,-0.11576 H 61.36441 v 4.67982 q 0,0.0662 -0.03307,0.11576 -0.03307,0.0496 -0.115756,0.0827 -0.08268,0.0248 -0.223242,0.0413 -0.132291,0.0248 -0.338997,0.0248 -0.198438,0 -0.338997,-0.0248 -0.14056,-0.0165 -0.223243,-0.0413 -0.08268,-0.0331 -0.115755,-0.0827 -0.03307,-0.0496 -0.03307,-0.11576 v -10.27741 q 0,-0.0579 0.03307,-0.10748 0.03307,-0.0496 0.115755,-0.0744 0.08268,-0.0331 0.223243,-0.0496 0.140559,-0.0248 0.338997,-0.0248 0.206706,0 0.338997,0.0248 0.14056,0.0165 0.223242,0.0496 0.08268,0.0248 0.115756,0.0744 0.03307,0.0496 0.03307,0.10748 v 4.3739 h 0.595312 q 0.496094,0 0.868164,-0.11576 0.37207,-0.12402 0.65319,-0.3638 0.289388,-0.23978 0.504362,-0.60358 0.223242,-0.37207 0.396875,-0.87643 l 0.810287,-2.33165 q 0.02479,-0.0827 0.06615,-0.14882 0.04134,-0.0662 0.124024,-0.10749 0.08268,-0.0413 0.223242,-0.0579 0.148828,-0.0248 0.380339,-0.0248 0.214974,0 0.347265,0.0165 0.132292,0.0165 0.206706,0.0496 0.08268,0.0331 0.107487,0.0827 0.02479,0.0496 0.02479,0.11575 0,0.0909 -0.03307,0.20671 -0.02479,0.10749 -0.07442,0.25631 l -0.851627,2.22416 q -0.181901,0.50436 -0.380339,0.86816 -0.190169,0.3638 -0.421679,0.62839 -0.231511,0.25631 -0.504362,0.42995 -0.272852,0.16536 -0.611849,0.26458 v 0.0165 q 0.388606,0.14056 0.686263,0.33072 0.305924,0.18191 0.562239,0.45476 0.256315,0.27285 0.471289,0.66146 0.214974,0.38033 0.42168,0.91777 l 1.008724,2.54661 q 0.08268,0.21498 0.09922,0.30593 0.01654,0.0827 0.01654,0.14883 z" />
    <path
       inkscape:connector-curvature="0"
       id="path73"
       style="font-style:normal;font-variant:normal;font-weight:normal;font-stretch:normal;font-size:64px;line-height:1.25;font-family:Calibri;-inkscape-font-specification:Calibri;letter-spacing:0px;word-spacing:0px;fill:#000000;fill-opacity:1;stroke:none;stroke-width:0.26458332"
       d="m 73.436026,123.11813 q -0.388607,0.95911 -0.719336,1.57096 -0.330729,0.60358 -0.677995,0.94258 -0.347265,0.339 -0.752409,0.46302 -0.405143,0.12403 -0.934309,0.12403 -0.181901,0 -0.372071,-0.0248 -0.181901,-0.0248 -0.347265,-0.0744 -0.165365,-0.0413 -0.297657,-0.0992 -0.124023,-0.0579 -0.181901,-0.0992 -0.05788,-0.0496 -0.09095,-0.0992 -0.02479,-0.0579 -0.04961,-0.14056 -0.01654,-0.0827 -0.02479,-0.2067 -0.0083,-0.12403 -0.0083,-0.29766 0,-0.31419 0.05788,-0.45475 0.06614,-0.14056 0.190169,-0.14056 0.06615,0 0.148828,0.0496 0.09095,0.0496 0.214974,0.11575 0.124023,0.0662 0.297656,0.11576 0.181901,0.0496 0.42168,0.0496 0.206706,0 0.380338,-0.0413 0.181901,-0.0496 0.338998,-0.19844 0.165364,-0.14883 0.338997,-0.41341 0.173633,-0.27285 0.380339,-0.73587 l -3.811654,-7.63985 q -0.07441,-0.16536 -0.09095,-0.27285 -0.0083,-0.10749 0.05788,-0.16536 0.07441,-0.0579 0.231511,-0.0744 0.157096,-0.0248 0.413411,-0.0248 0.239779,0 0.380339,0.0165 0.148828,0.0165 0.239778,0.0579 0.09095,0.0331 0.14056,0.0992 0.05788,0.0579 0.09922,0.1571 l 1.909961,3.9026 q 0.322461,0.65319 0.603581,1.26504 0.289388,0.60358 0.562239,1.20716 h 0.02479 q 0.223242,-0.62838 0.454752,-1.2485 0.239779,-0.62838 0.537435,-1.37252 l 1.49655,-3.81993 q 0.02479,-0.0744 0.06615,-0.12402 0.04961,-0.0496 0.132292,-0.0827 0.09095,-0.0331 0.239779,-0.0413 0.157096,-0.0165 0.396875,-0.0165 0.248047,0 0.396875,0.0248 0.148828,0.0248 0.214974,0.0744 0.06615,0.0496 0.06615,0.13229 0,0.0827 -0.04961,0.19844 z" />
    <path
       inkscape:connector-curvature="0"
       id="path75"
       style="font-style:normal;font-variant:normal;font-weight:normal;font-stretch:normal;font-size:64px;line-height:1.25;font-family:Calibri;-inkscape-font-specification:Calibri;letter-spacing:0px;word-spacing:0px;fill:#000000;fill-opacity:1;stroke:none;stroke-width:0.26458332"
       d="m 85.747419,125.88799 q 0,0.0661 -0.03307,0.11575 -0.03307,0.0413 -0.115755,0.0744 -0.08268,0.0331 -0.223242,0.0496 -0.132292,0.0165 -0.338998,0.0165 -0.198437,0 -0.338997,-0.0165 -0.14056,-0.0165 -0.223242,-0.0496 -0.07441,-0.0331 -0.115755,-0.0744 -0.03307,-0.0496 -0.03307,-0.11575 v -9.26042 h -4.83692 v 9.26042 q 0,0.0661 -0.04134,0.11575 -0.03307,0.0413 -0.115756,0.0744 -0.07441,0.0331 -0.214974,0.0496 -0.132291,0.0165 -0.338997,0.0165 -0.206706,0 -0.347266,-0.0165 -0.132291,-0.0165 -0.214974,-0.0496 -0.08268,-0.0331 -0.115755,-0.0744 -0.03307,-0.0496 -0.03307,-0.11575 v -9.91361 q 0,-0.28939 0.14056,-0.42995 0.148828,-0.14883 0.372071,-0.14883 h 6.67246 q 0.231511,0 0.363802,0.14883 0.132292,0.14056 0.132292,0.42995 z" />
    <path
       inkscape:connector-curvature="0"
       id="path77"
       style="font-style:normal;font-variant:normal;font-weight:normal;font-stretch:normal;font-size:64px;line-height:1.25;font-family:Calibri;-inkscape-font-specification:Calibri;letter-spacing:0px;word-spacing:0px;fill:#000000;fill-opacity:1;stroke:none;stroke-width:0.26458332"
       d="m 96.603604,125.88799 q 0,0.0661 -0.03307,0.11575 -0.03307,0.0413 -0.115755,0.0744 -0.08268,0.0331 -0.223242,0.0496 -0.132292,0.0165 -0.338998,0.0165 -0.198437,0 -0.338997,-0.0165 -0.14056,-0.0165 -0.223242,-0.0496 -0.07441,-0.0331 -0.107487,-0.0744 -0.03307,-0.0496 -0.03307,-0.11575 v -7.01973 q 0,-0.25632 0.0083,-0.52917 0.0083,-0.28112 0.02479,-0.50436 h -0.01654 q -0.06615,0.11576 -0.148828,0.24805 -0.07441,0.13229 -0.165365,0.28112 -0.09095,0.14056 -0.181901,0.28939 -0.09095,0.14056 -0.181901,0.28112 l -4.630208,6.96184 q -0.04961,0.0662 -0.09922,0.11576 -0.04961,0.0496 -0.132292,0.0827 -0.07441,0.0248 -0.181901,0.0331 -0.107487,0.0165 -0.272851,0.0165 -0.19017,0 -0.314193,-0.0165 -0.115755,-0.0165 -0.190169,-0.0496 -0.06615,-0.0413 -0.09922,-0.091 -0.02479,-0.0496 -0.02479,-0.12402 v -10.26087 q 0,-0.0579 0.03307,-0.10749 0.04134,-0.0496 0.124024,-0.0827 0.09095,-0.0331 0.223242,-0.0496 0.14056,-0.0165 0.330729,-0.0165 0.206706,0 0.338998,0.0165 0.140559,0.0165 0.223242,0.0496 0.08268,0.0331 0.115755,0.0827 0.03307,0.0496 0.03307,0.10749 v 7.06107 q 0,0.22324 -0.0083,0.47955 0,0.25632 -0.02479,0.4961 h 0.01654 q 0.132292,-0.20671 0.305924,-0.4961 0.181901,-0.29765 0.380339,-0.58704 l 4.62194,-6.97012 q 0.04134,-0.0579 0.09095,-0.0992 0.04961,-0.0496 0.124024,-0.0744 0.08268,-0.0331 0.190169,-0.0496 0.107487,-0.0165 0.272852,-0.0165 0.190169,0 0.305924,0.0165 0.124024,0.0165 0.190169,0.0579 0.07441,0.0331 0.09922,0.0827 0.03307,0.0413 0.03307,0.11576 z" />
    <path
       inkscape:connector-curvature="0"
       id="path79"
       style="font-style:normal;font-variant:normal;font-weight:normal;font-stretch:normal;font-size:64px;line-height:1.25;font-family:Calibri;-inkscape-font-specification:Calibri;letter-spacing:0px;word-spacing:0px;fill:#000000;fill-opacity:1;stroke:none;stroke-width:0.26458332"
       d="m 106.16994,116.00745 q 0,0.1571 -0.0165,0.27285 -0.0165,0.11576 -0.0579,0.19017 -0.0331,0.0661 -0.0909,0.0992 -0.0496,0.0331 -0.11575,0.0331 h -3.00964 v 9.27696 q 0,0.0661 -0.0331,0.11575 -0.0331,0.0496 -0.11576,0.0827 -0.0827,0.0248 -0.22324,0.0413 -0.13229,0.0248 -0.339,0.0248 -0.19844,0 -0.339,-0.0248 -0.14056,-0.0165 -0.22324,-0.0413 -0.0827,-0.0331 -0.11575,-0.0827 -0.0331,-0.0496 -0.0331,-0.11575 v -9.27696 h -3.009631 q -0.06615,0 -0.124023,-0.0331 -0.04961,-0.0331 -0.08268,-0.0992 -0.03307,-0.0744 -0.05788,-0.19017 -0.01654,-0.11575 -0.01654,-0.27285 0,-0.15709 0.01654,-0.27285 0.02479,-0.12402 0.05788,-0.19844 0.03307,-0.0744 0.08268,-0.10748 0.05788,-0.0331 0.124023,-0.0331 h 7.441411 q 0.0661,0 0.11575,0.0331 0.0579,0.0331 0.0909,0.10748 0.0413,0.0744 0.0579,0.19844 0.0165,0.11576 0.0165,0.27285 z" />
    <path
       inkscape:connector-curvature="0"
       id="path81"
       style="font-style:normal;font-variant:normal;font-weight:normal;font-stretch:normal;font-size:64px;line-height:1.25;font-family:Calibri;-inkscape-font-specification:Calibri;letter-spacing:0px;word-spacing:0px;fill:#000000;fill-opacity:1;stroke:none;stroke-width:0.26458332"
       d="m 114.86812,122.75433 q 0,0.65319 -0.2067,1.24023 -0.19844,0.58705 -0.66146,1.05834 -0.45475,0.46302 -1.21543,0.7524 -0.76068,0.28939 -2.1332,0.28939 h -2.36472 q -0.0992,0 -0.19844,-0.0248 -0.0992,-0.0331 -0.17363,-0.0992 -0.0744,-0.0744 -0.13229,-0.1819 -0.0496,-0.11575 -0.0496,-0.27285 v -9.91361 q 0,-0.0579 0.0331,-0.10748 0.0413,-0.0496 0.12403,-0.0827 0.0909,-0.0331 0.22324,-0.0496 0.14056,-0.0165 0.33073,-0.0165 0.2067,0 0.339,0.0165 0.14056,0.0165 0.22324,0.0496 0.0827,0.0331 0.11575,0.0827 0.0331,0.0496 0.0331,0.10748 v 4.01009 h 1.6123 q 1.17409,0 1.86862,0.19844 0.7028,0.19844 1.19063,0.59531 0.49609,0.38861 0.76894,0.98392 0.27285,0.58705 0.27285,1.36426 z m -1.48001,0.13229 q 0,-0.50436 -0.14883,-0.8847 -0.14056,-0.38861 -0.44648,-0.65319 -0.29766,-0.27285 -0.76068,-0.41341 -0.46302,-0.14883 -1.38906,-0.14883 h -1.48828 v 4.12585 h 1.5875 q 0.98391,0 1.46347,-0.19844 0.47956,-0.19844 0.72761,-0.4961 0.25631,-0.30592 0.35553,-0.66145 0.0992,-0.35554 0.0992,-0.66973 z" />
    <path
       inkscape:connector-curvature="0"
       id="path83"
       style="font-style:normal;font-variant:normal;font-weight:normal;font-stretch:normal;font-size:64px;line-height:1.25;font-family:Calibri;-inkscape-font-specification:Calibri;letter-spacing:0px;word-spacing:0px;fill:#000000;fill-opacity:1;stroke:none;stroke-width:0.26458332"
       d="m 127.13817,118.52926 q 0,0.80202 -0.26458,1.44694 -0.26458,0.64492 -0.76068,1.09968 -0.48782,0.45475 -1.20716,0.7028 -0.71107,0.24804 -1.70325,0.24804 h -1.21543 v 3.853 q 0,0.0661 -0.0413,0.11575 -0.0331,0.0496 -0.11576,0.0827 -0.0744,0.0248 -0.21497,0.0413 -0.13229,0.0248 -0.339,0.0248 -0.20671,0 -0.34727,-0.0248 -0.13229,-0.0165 -0.21497,-0.0413 -0.0827,-0.0331 -0.11576,-0.0827 -0.0331,-0.0496 -0.0331,-0.11575 v -9.87227 q 0,-0.33073 0.17363,-0.47129 0.17364,-0.14056 0.38861,-0.14056 h 2.2903 q 0.34727,0 0.66146,0.0331 0.32246,0.0248 0.75241,0.12402 0.43821,0.0909 0.8847,0.35553 0.45475,0.25632 0.76894,0.63666 0.3142,0.38034 0.47956,0.8847 0.17363,0.49609 0.17363,1.09967 z m -1.49655,0.11576 q 0,-0.65319 -0.24804,-1.09141 -0.23978,-0.43821 -0.60358,-0.65319 -0.35554,-0.21497 -0.74414,-0.27285 -0.38034,-0.0579 -0.74414,-0.0579 h -1.31465 v 4.29121 h 1.28157 q 0.64492,0 1.0666,-0.16536 0.42995,-0.16537 0.71934,-0.45475 0.28939,-0.29766 0.43822,-0.7028 0.14882,-0.41342 0.14882,-0.89297 z" />
    <path
       inkscape:connector-curvature="0"
       id="path85"
       style="font-style:normal;font-variant:normal;font-weight:normal;font-stretch:normal;font-size:64px;line-height:1.25;font-family:Calibri;-inkscape-font-specification:Calibri;letter-spacing:0px;word-spacing:0px;fill:#000000;fill-opacity:1;stroke:none;stroke-width:0.26458332"
       d="m 135.28238,125.50765 q 0,0.14883 -0.0165,0.26458 -0.0165,0.10749 -0.0579,0.1819 -0.0413,0.0744 -0.0992,0.10749 -0.0496,0.0331 -0.11576,0.0331 h -5.13457 q -0.19017,0 -0.3638,-0.12402 -0.16537,-0.13229 -0.16537,-0.45475 v -9.54154 q 0,-0.32246 0.16537,-0.44648 0.17363,-0.1323 0.3638,-0.1323 h 5.07669 q 0.0661,0 0.11576,0.0331 0.0579,0.0331 0.0909,0.10748 0.0331,0.0744 0.0496,0.19017 0.0248,0.10749 0.0248,0.27285 0,0.14883 -0.0248,0.26459 -0.0165,0.10748 -0.0496,0.1819 -0.0331,0.0661 -0.0909,0.0992 -0.0496,0.0331 -0.11576,0.0331 h -4.18372 v 3.3569 h 3.58841 q 0.0661,0 0.11576,0.0413 0.0579,0.0331 0.091,0.0992 0.0413,0.0662 0.0579,0.1819 0.0165,0.11576 0.0165,0.27285 0,0.14883 -0.0165,0.25632 -0.0165,0.10749 -0.0579,0.17363 -0.0331,0.0661 -0.091,0.0992 -0.0496,0.0248 -0.11576,0.0248 h -3.58841 v 3.82819 h 4.2416 q 0.0662,0 0.11576,0.0331 0.0579,0.0331 0.0992,0.10749 0.0413,0.0661 0.0579,0.1819 0.0165,0.10749 0.0165,0.27285 z" />
    <path
       inkscape:connector-curvature="0"
       id="path87"
       style="font-style:normal;font-variant:normal;font-weight:normal;font-stretch:normal;font-size:64px;line-height:1.25;font-family:Calibri;-inkscape-font-specification:Calibri;letter-spacing:0px;word-spacing:0px;fill:#000000;fill-opacity:1;stroke:none;stroke-width:0.26458332"
       d="m 144.89833,125.88799 q 0,0.0661 -0.0331,0.11575 -0.0331,0.0413 -0.11576,0.0744 -0.0827,0.0331 -0.22324,0.0496 -0.13229,0.0165 -0.339,0.0165 -0.2067,0 -0.34726,-0.0165 -0.1323,-0.0165 -0.21498,-0.0496 -0.0827,-0.0331 -0.11575,-0.0744 -0.0331,-0.0496 -0.0331,-0.11575 v -9.26869 h -3.00963 q -0.22324,1.90996 -0.44649,3.36517 -0.22324,1.45521 -0.47128,2.53008 -0.24805,1.0666 -0.54571,1.77767 -0.29765,0.71107 -0.68626,1.14928 -0.38034,0.42995 -0.86816,0.61185 -0.47956,0.17363 -1.09968,0.17363 -0.0827,0 -0.14883,-0.0331 -0.0661,-0.0331 -0.11575,-0.10749 -0.0413,-0.0744 -0.0661,-0.19017 -0.0165,-0.11575 -0.0165,-0.28112 0,-0.2067 0.0165,-0.33899 0.0248,-0.13229 0.0579,-0.21498 0.0331,-0.0827 0.0827,-0.11575 0.0579,-0.0331 0.12403,-0.0331 0.30592,0 0.5705,-0.12403 0.27285,-0.12402 0.5209,-0.46302 0.24805,-0.34726 0.47129,-0.95911 0.23151,-0.62012 0.44648,-1.60404 0.21498,-0.99219 0.42168,-2.39779 0.20671,-1.4056 0.40515,-3.33209 0.0413,-0.34727 0.16536,-0.48783 0.12403,-0.14883 0.3638,-0.14883 h 4.75424 q 0.23151,0 0.3638,0.14883 0.13229,0.14056 0.13229,0.42995 z" />
    <path
       inkscape:connector-curvature="0"
       id="path89"
       style="font-style:normal;font-variant:normal;font-weight:normal;font-stretch:normal;font-size:64px;line-height:1.25;font-family:Calibri;-inkscape-font-specification:Calibri;letter-spacing:0px;word-spacing:0px;fill:#000000;fill-opacity:1;stroke:none;stroke-width:0.26458332"
       d="m 154.88635,122.75433 q 0,0.65319 -0.20671,1.24023 -0.19843,0.58705 -0.66145,1.05834 -0.45476,0.46302 -1.21543,0.7524 -0.76068,0.28939 -2.13321,0.28939 h -2.36471 q -0.0992,0 -0.19844,-0.0248 -0.0992,-0.0331 -0.17363,-0.0992 -0.0744,-0.0744 -0.13229,-0.1819 -0.0496,-0.11575 -0.0496,-0.27285 v -9.91361 q 0,-0.0579 0.0331,-0.10748 0.0413,-0.0496 0.12403,-0.0827 0.0909,-0.0331 0.22324,-0.0496 0.14056,-0.0165 0.33073,-0.0165 0.2067,0 0.33899,0.0165 0.14056,0.0165 0.22325,0.0496 0.0827,0.0331 0.11575,0.0827 0.0331,0.0496 0.0331,0.10748 v 4.01009 h 1.61231 q 1.17409,0 1.86862,0.19844 0.7028,0.19844 1.19062,0.59531 0.4961,0.38861 0.76895,0.98392 0.27285,0.58705 0.27285,1.36426 z m -1.48001,0.13229 q 0,-0.50436 -0.14883,-0.8847 -0.14056,-0.38861 -0.44648,-0.65319 -0.29766,-0.27285 -0.76068,-0.41341 -0.46302,-0.14883 -1.38906,-0.14883 H 149.173 v 4.12585 h 1.5875 q 0.98392,0 1.46348,-0.19844 0.47956,-0.19844 0.7276,-0.4961 0.25632,-0.30592 0.35554,-0.66145 0.0992,-0.35554 0.0992,-0.66973 z" />
    <path
       inkscape:connector-curvature="0"
       id="path91"
       style="font-style:normal;font-variant:normal;font-weight:normal;font-stretch:normal;font-size:64px;line-height:1.25;font-family:Calibri;-inkscape-font-specification:Calibri;letter-spacing:0px;word-spacing:0px;fill:#000000;fill-opacity:1;stroke:none;stroke-width:0.26458332"
       d="m 163.89045,124.58161 q 0,0.13229 -0.008,0.23151 -0.008,0.0992 -0.0331,0.17363 -0.0165,0.0744 -0.0496,0.13229 -0.0331,0.0579 -0.11575,0.14056 -0.0827,0.0827 -0.34727,0.25632 -0.26458,0.16536 -0.66145,0.33073 -0.38861,0.15709 -0.90124,0.26458 -0.50436,0.11575 -1.10794,0.11575 -1.0418,0 -1.88516,-0.34726 -0.83509,-0.34727 -1.4304,-1.02526 -0.58705,-0.678 -0.90951,-1.67018 -0.31419,-1.00046 -0.31419,-2.29857 0,-1.33119 0.339,-2.37298 0.34726,-1.0418 0.96738,-1.76114 0.62012,-0.7276 1.48001,-1.10794 0.86817,-0.38034 1.91823,-0.38034 0.46302,0 0.90124,0.0909 0.43821,0.0827 0.81028,0.21498 0.37207,0.13229 0.66146,0.30592 0.28939,0.17363 0.39688,0.28939 0.11575,0.10749 0.14883,0.16536 0.0331,0.0579 0.0496,0.14056 0.0248,0.0744 0.0331,0.1819 0.0165,0.10749 0.0165,0.25632 0,0.16536 -0.0165,0.28112 -0.0165,0.11575 -0.0496,0.19844 -0.0331,0.0744 -0.0827,0.11575 -0.0413,0.0331 -0.10749,0.0331 -0.11576,0 -0.32246,-0.15709 -0.20671,-0.16537 -0.53744,-0.35554 -0.32246,-0.19843 -0.79375,-0.35553 -0.46302,-0.16536 -1.11621,-0.16536 -0.71107,0 -1.29811,0.28938 -0.57878,0.28112 -0.99219,0.8351 -0.41341,0.55397 -0.64492,1.35598 -0.22324,0.79375 -0.22324,1.81902 0,1.01699 0.21497,1.80247 0.22324,0.77721 0.62839,1.30638 0.41341,0.5209 1.00872,0.79375 0.59531,0.26458 1.34772,0.26458 0.63666,0 1.10795,-0.15709 0.47955,-0.1571 0.81028,-0.34727 0.339,-0.19844 0.55397,-0.35553 0.21498,-0.1571 0.339,-0.1571 0.0579,0 0.0992,0.0248 0.0413,0.0248 0.0661,0.0992 0.0248,0.0661 0.0331,0.19017 0.0165,0.12402 0.0165,0.31419 z" />
    <path
       inkscape:connector-curvature="0"
       id="path93"
       style="font-style:normal;font-variant:normal;font-weight:normal;font-stretch:normal;font-size:64px;line-height:1.25;font-family:Calibri;-inkscape-font-specification:Calibri;letter-spacing:0px;word-spacing:0px;fill:#000000;fill-opacity:1;stroke:none;stroke-width:0.26458332"
       d="m 175.82977,125.88799 q 0,0.0661 -0.0331,0.11575 -0.0331,0.0413 -0.11575,0.0744 -0.0827,0.0331 -0.22325,0.0496 -0.14056,0.0165 -0.33899,0.0165 -0.20671,0 -0.339,-0.0165 -0.13229,-0.0165 -0.22324,-0.0496 -0.0827,-0.0331 -0.11576,-0.0744 -0.0331,-0.0496 -0.0331,-0.11575 v -10.28568 q 0,-0.0579 0.0331,-0.10749 0.0413,-0.0496 0.12403,-0.0827 0.0909,-0.0331 0.22324,-0.0496 0.14056,-0.0165 0.33073,-0.0165 0.19843,0 0.33899,0.0165 0.14056,0.0165 0.22325,0.0496 0.0827,0.0331 0.11575,0.0827 0.0331,0.0496 0.0331,0.10749 z m -3.08404,-3.12539 q 0,0.66145 -0.21498,1.2485 -0.2067,0.57877 -0.66146,1.0418 -0.45475,0.46302 -1.21543,0.7524 -0.75241,0.28939 -2.09186,0.28939 h -2.23242 q -0.0992,0 -0.19844,-0.0248 -0.0992,-0.0331 -0.17363,-0.0992 -0.0744,-0.0744 -0.13229,-0.1819 -0.0496,-0.11575 -0.0496,-0.27285 v -9.91361 q 0,-0.0579 0.0331,-0.10748 0.0413,-0.0496 0.12402,-0.0827 0.091,-0.0331 0.22325,-0.0496 0.14056,-0.0165 0.33073,-0.0165 0.2067,0 0.33899,0.0165 0.14056,0.0165 0.22325,0.0496 0.0827,0.0331 0.11575,0.0827 0.0331,0.0496 0.0331,0.10748 v 4.04317 h 1.48002 q 1.14928,0 1.83554,0.19843 0.69453,0.19017 1.18236,0.58705 0.48783,0.38861 0.76895,0.97565 0.28112,0.58704 0.28112,1.35599 z m -1.47175,0.13229 q 0,-0.4961 -0.14883,-0.87643 -0.14883,-0.38034 -0.45475,-0.64493 -0.29766,-0.27285 -0.76068,-0.41341 -0.45475,-0.14883 -1.35599,-0.14883 h -1.35599 v 4.11758 h 1.45521 q 0.95912,0 1.43041,-0.19844 0.47955,-0.19843 0.7276,-0.49609 0.25631,-0.30592 0.35553,-0.66146 0.10749,-0.3638 0.10749,-0.67799 z" />
    <path
       inkscape:connector-curvature="0"
       id="path26"
       style="font-style:normal;font-variant:normal;font-weight:normal;font-stretch:normal;font-size:26.66666794px;line-height:1.25;font-family:Calibri;-inkscape-font-specification:Calibri;letter-spacing:0px;word-spacing:0px;fill:#000000;fill-opacity:1;stroke:none;stroke-width:0.26458332"
       d="m 63.446885,132.42459 q 0,0.54088 -0.127469,0.97496 -0.127468,0.43408 -0.382405,0.7407 -0.251491,0.30317 -0.633899,0.46853 -0.382405,0.16192 -0.892278,0.16192 -0.502986,0 -0.871609,-0.14814 -0.365181,-0.15158 -0.606338,-0.43753 -0.237712,-0.28594 -0.354846,-0.70969 -0.117133,-0.42374 -0.117133,-0.97496 0,-0.5271 0.127471,-0.95773 0.127468,-0.43064 0.382404,-0.73037 0.254937,-0.30316 0.637342,-0.46508 0.382405,-0.16537 0.892281,-0.16537 0.492649,0 0.857829,0.14814 0.365178,0.14814 0.606335,0.43408 0.244602,0.2825 0.361736,0.7028 0.120579,0.41686 0.120579,0.95774 z m -0.623562,0.0413 q 0,-0.37896 -0.0689,-0.7028 -0.06546,-0.32728 -0.22393,-0.56499 -0.15503,-0.24116 -0.416857,-0.37552 -0.261829,-0.13436 -0.647679,-0.13436 -0.385849,0 -0.647678,0.1447 -0.261827,0.14469 -0.427191,0.38585 -0.16192,0.24115 -0.234268,0.56499 -0.0689,0.3204 -0.0689,0.67524 0,0.39274 0.06546,0.72347 0.06546,0.33073 0.220488,0.57189 0.155028,0.23771 0.413412,0.37207 0.261826,0.13091 0.654566,0.13091 0.389297,0 0.654568,-0.14469 0.265274,-0.1447 0.427194,-0.3893 0.16192,-0.24805 0.23082,-0.57188 0.0689,-0.32384 0.0689,-0.68558 z" />
    <path
       inkscape:connector-curvature="0"
       id="path28"
       style="font-style:normal;font-variant:normal;font-weight:normal;font-stretch:normal;font-size:26.66666794px;line-height:1.25;font-family:Calibri;-inkscape-font-specification:Calibri;letter-spacing:0px;word-spacing:0px;fill:#000000;fill-opacity:1;stroke:none;stroke-width:0.26458332"
       d="m 68.118434,132.42459 q 0,0.54088 -0.127468,0.97496 -0.127469,0.43408 -0.382405,0.7407 -0.251492,0.30317 -0.6339,0.46853 -0.382405,0.16192 -0.892278,0.16192 -0.502986,0 -0.871609,-0.14814 -0.36518,-0.15158 -0.606337,-0.43753 -0.237713,-0.28594 -0.354846,-0.70969 -0.117134,-0.42374 -0.117134,-0.97496 0,-0.5271 0.127471,-0.95773 0.127468,-0.43064 0.382405,-0.73037 0.254937,-0.30316 0.637341,-0.46508 0.382405,-0.16537 0.892281,-0.16537 0.492649,0 0.85783,0.14814 0.365178,0.14814 0.606335,0.43408 0.244602,0.2825 0.361735,0.7028 0.120579,0.41686 0.120579,0.95774 z m -0.623562,0.0413 q 0,-0.37896 -0.0689,-0.7028 -0.06546,-0.32728 -0.22393,-0.56499 -0.15503,-0.24116 -0.416856,-0.37552 -0.261829,-0.13436 -0.647679,-0.13436 -0.38585,0 -0.647679,0.1447 -0.261826,0.14469 -0.427191,0.38585 -0.16192,0.24115 -0.234267,0.56499 -0.0689,0.3204 -0.0689,0.67524 0,0.39274 0.06546,0.72347 0.06546,0.33073 0.220488,0.57189 0.155027,0.23771 0.413411,0.37207 0.261827,0.13091 0.654566,0.13091 0.389297,0 0.654569,-0.14469 0.265274,-0.1447 0.427193,-0.3893 0.16192,-0.24805 0.23082,-0.57188 0.0689,-0.32384 0.0689,-0.68558 z" />
    <path
       inkscape:connector-curvature="0"
       id="path30"
       style="font-style:normal;font-variant:normal;font-weight:normal;font-stretch:normal;font-size:26.66666794px;line-height:1.25;font-family:Calibri;-inkscape-font-specification:Calibri;letter-spacing:0px;word-spacing:0px;fill:#000000;fill-opacity:1;stroke:none;stroke-width:0.26458332"
       d="m 72.789983,132.42459 q 0,0.54088 -0.127468,0.97496 -0.127468,0.43408 -0.382405,0.7407 -0.251492,0.30317 -0.633899,0.46853 -0.382405,0.16192 -0.892278,0.16192 -0.502986,0 -0.871609,-0.14814 -0.365181,-0.15158 -0.606338,-0.43753 -0.237712,-0.28594 -0.354846,-0.70969 -0.117134,-0.42374 -0.117134,-0.97496 0,-0.5271 0.127471,-0.95773 0.127469,-0.43064 0.382405,-0.73037 0.254937,-0.30316 0.637342,-0.46508 0.382405,-0.16537 0.892281,-0.16537 0.492649,0 0.857829,0.14814 0.365178,0.14814 0.606335,0.43408 0.244602,0.2825 0.361736,0.7028 0.120578,0.41686 0.120578,0.95774 z m -0.623562,0.0413 q 0,-0.37896 -0.0689,-0.7028 -0.06546,-0.32728 -0.223931,-0.56499 -0.155029,-0.24116 -0.416856,-0.37552 -0.261829,-0.13436 -0.647679,-0.13436 -0.385849,0 -0.647679,0.1447 -0.261826,0.14469 -0.42719,0.38585 -0.16192,0.24115 -0.234268,0.56499 -0.0689,0.3204 -0.0689,0.67524 0,0.39274 0.06546,0.72347 0.06546,0.33073 0.220488,0.57189 0.155027,0.23771 0.413412,0.37207 0.261826,0.13091 0.654566,0.13091 0.389297,0 0.654568,-0.14469 0.265274,-0.1447 0.427194,-0.3893 0.161919,-0.24805 0.23082,-0.57188 0.0689,-0.32384 0.0689,-0.68558 z" />
    <path
       inkscape:connector-curvature="0"
       id="path32"
       style="font-style:normal;font-variant:normal;font-weight:normal;font-stretch:normal;font-size:26.66666794px;line-height:1.25;font-family:Calibri;-inkscape-font-specification:Calibri;letter-spacing:0px;word-spacing:0px;fill:#000000;fill-opacity:1;stroke:none;stroke-width:0.26458332"
       d="m 78.119546,130.50223 q 0,0.0654 -0.0069,0.11369 -0.0069,0.0482 -0.0241,0.0792 -0.01378,0.0276 -0.0379,0.0413 -0.02066,0.0138 -0.04823,0.0138 h -1.254013 v 3.86539 q 0,0.0276 -0.01378,0.0482 -0.01378,0.0207 -0.04823,0.0345 -0.03445,0.0103 -0.09302,0.0172 -0.05512,0.0104 -0.141248,0.0104 -0.08268,0 -0.14125,-0.0104 -0.05857,-0.007 -0.09302,-0.0172 -0.03445,-0.0138 -0.04823,-0.0345 -0.01378,-0.0207 -0.01378,-0.0482 v -3.8654 h -1.254014 q -0.02756,0 -0.05168,-0.0138 -0.02066,-0.0138 -0.03445,-0.0413 -0.01378,-0.031 -0.02413,-0.0792 -0.0069,-0.0482 -0.0069,-0.11369 0,-0.0655 0.0069,-0.11369 0.01035,-0.0517 0.02413,-0.0827 0.01378,-0.031 0.03445,-0.0448 0.0241,-0.0138 0.05168,-0.0138 h 3.100586 q 0.02756,0 0.04823,0.0138 0.0241,0.0138 0.0379,0.0448 0.01722,0.031 0.0241,0.0827 0.0069,0.0482 0.0069,0.11369 z" />
    <path
       inkscape:connector-curvature="0"
       id="path34"
       style="font-style:normal;font-variant:normal;font-weight:normal;font-stretch:normal;font-size:26.66666794px;line-height:1.25;font-family:Calibri;-inkscape-font-specification:Calibri;letter-spacing:0px;word-spacing:0px;fill:#000000;fill-opacity:1;stroke:none;stroke-width:0.26458332"
       d="m 82.208875,135.79045 q 0,0.0276 -0.01035,0.0448 -0.01035,0.0172 -0.04134,0.0276 -0.02756,0.0103 -0.07579,0.0172 -0.04823,0.007 -0.130913,0.007 -0.0689,0 -0.117134,-0.007 -0.04823,-0.007 -0.07924,-0.0172 -0.02756,-0.0103 -0.04134,-0.0276 -0.01035,-0.0172 -0.01035,-0.0448 v -1.08521 h -3.355501 v 1.08521 q 0,0.0276 -0.01378,0.0448 -0.01035,0.0172 -0.04134,0.0276 -0.02756,0.0103 -0.07579,0.0172 -0.04823,0.007 -0.120578,0.007 -0.07923,0 -0.127468,-0.007 -0.04823,-0.007 -0.07924,-0.0172 -0.02756,-0.0103 -0.04134,-0.0276 -0.01035,-0.0172 -0.01035,-0.0448 v -1.41593 q -0.0069,-0.0896 0.02756,-0.13092 0.03445,-0.0413 0.106797,-0.0413 h 0.258384 q 0.09646,-0.12403 0.179144,-0.25149 0.08268,-0.13092 0.158475,-0.30662 0.07579,-0.1757 0.148137,-0.42719 0.07235,-0.25149 0.141251,-0.62011 0.07235,-0.37207 0.144693,-0.8854 0.07235,-0.51331 0.151585,-1.21956 0.02066,-0.12402 0.0689,-0.18259 0.05168,-0.062 0.144693,-0.062 h 2.056723 q 0.09302,0 0.14814,0.062 0.05857,0.0586 0.05857,0.17915 v 3.71381 h 0.444418 q 0.07235,0 0.103351,0.0448 0.03101,0.0413 0.03101,0.13091 z m -1.171332,-5.03673 h -1.322916 q -0.07235,0.63734 -0.144696,1.11276 -0.0689,0.47543 -0.137803,0.82683 -0.06546,0.3514 -0.134358,0.596 -0.0689,0.24116 -0.14125,0.41341 -0.0689,0.16881 -0.144693,0.28594 -0.07235,0.11714 -0.151585,0.2136 h 2.177301 z" />
    <path
       inkscape:connector-curvature="0"
       id="path36"
       style="font-style:normal;font-variant:normal;font-weight:normal;font-stretch:normal;font-size:26.66666794px;line-height:1.25;font-family:Calibri;-inkscape-font-specification:Calibri;letter-spacing:0px;word-spacing:0px;fill:#000000;fill-opacity:1;stroke:none;stroke-width:0.26458332"
       d="m 86.959662,134.15058 q 0.02066,0.0345 0.02066,0.0586 0,0.0241 -0.02756,0.0413 -0.0241,0.0172 -0.07923,0.0276 -0.05168,0.007 -0.137805,0.007 -0.07924,0 -0.127469,0 -0.04823,-0.003 -0.07924,-0.0138 -0.03101,-0.0104 -0.04823,-0.0241 -0.01722,-0.0138 -0.0379,-0.0448 l -0.754476,-1.15755 q -0.04823,-0.0723 -0.04823,-0.1378 0,-0.0689 0.05168,-0.14469 l 0.737251,-1.13344 q 0.01722,-0.0241 0.03445,-0.0413 0.02066,-0.0207 0.05168,-0.031 0.03101,-0.0104 0.07924,-0.0104 0.04823,-0.003 0.124023,-0.003 0.08613,0 0.137803,0.0103 0.05512,0.007 0.07924,0.0276 0.02756,0.0172 0.02756,0.0448 0.0034,0.0241 -0.01722,0.0586 l -0.740696,1.22301 z m -2.018827,-1.23679 0.733806,1.28502 q 0.02066,0.0344 0.02066,0.0655 0.0034,0.0276 -0.02066,0.0517 -0.02066,0.0207 -0.07235,0.031 -0.05168,0.0104 -0.141251,0.0104 -0.07579,0 -0.124023,-0.003 -0.04479,-0.003 -0.07579,-0.0138 -0.03101,-0.0103 -0.05168,-0.0276 -0.01722,-0.0172 -0.03445,-0.0448 l -0.761365,-1.21612 q -0.04479,-0.0792 -0.04479,-0.14814 0,-0.0689 0.05168,-0.1447 l 0.747585,-1.19544 q 0.01722,-0.0276 0.03445,-0.0448 0.02066,-0.0172 0.05168,-0.0276 0.03101,-0.0103 0.07579,-0.0138 0.04823,-0.003 0.124023,-0.003 0.08613,0 0.137806,0.0103 0.05168,0.0103 0.07579,0.031 0.0241,0.0207 0.0241,0.0482 0,0.0276 -0.02066,0.0654 z" />
    <path
       inkscape:connector-curvature="0"
       id="path38"
       style="font-style:normal;font-variant:normal;font-weight:normal;font-stretch:normal;font-size:26.66666794px;line-height:1.25;font-family:Calibri;-inkscape-font-specification:Calibri;letter-spacing:0px;word-spacing:0px;fill:#000000;fill-opacity:1;stroke:none;stroke-width:0.26458332"
       d="m 91.145452,134.07479 q 0,0.0551 -0.0034,0.0965 -0.0034,0.0414 -0.01378,0.0724 -0.0069,0.031 -0.02066,0.0551 -0.01378,0.0241 -0.04823,0.0586 -0.03445,0.0344 -0.144693,0.1068 -0.110244,0.0689 -0.275609,0.1378 -0.161919,0.0655 -0.375515,0.11024 -0.21015,0.0482 -0.461642,0.0482 -0.434083,0 -0.785482,-0.1447 -0.347956,-0.14469 -0.596003,-0.42719 -0.244602,-0.2825 -0.37896,-0.69591 -0.130913,-0.41686 -0.130913,-0.95774 0,-0.55466 0.141248,-0.98874 0.144695,-0.43408 0.403077,-0.73381 0.258381,-0.30316 0.616672,-0.46164 0.361736,-0.15847 0.799261,-0.15847 0.192926,0 0.375515,0.0379 0.182592,0.0344 0.337622,0.0896 0.155027,0.0551 0.275606,0.12747 0.120578,0.0723 0.165364,0.12057 0.04823,0.0448 0.06201,0.0689 0.01378,0.0241 0.02066,0.0586 0.01035,0.031 0.01378,0.0758 0.0069,0.0448 0.0069,0.1068 0,0.0689 -0.0069,0.11714 -0.0069,0.0482 -0.02066,0.0827 -0.01378,0.031 -0.03445,0.0482 -0.01722,0.0138 -0.04479,0.0138 -0.04823,0 -0.134358,-0.0654 -0.08613,-0.0689 -0.223933,-0.14814 -0.134358,-0.0827 -0.330729,-0.14814 -0.192924,-0.0689 -0.465087,-0.0689 -0.296278,0 -0.54088,0.12058 -0.241157,0.11713 -0.413412,0.34795 -0.172254,0.23082 -0.268716,0.565 -0.09302,0.33073 -0.09302,0.75792 0,0.42374 0.08957,0.75103 0.09302,0.32384 0.261827,0.54432 0.172254,0.21704 0.420301,0.33073 0.248047,0.11024 0.561552,0.11024 0.265271,0 0.461642,-0.0654 0.199816,-0.0655 0.337619,-0.1447 0.141248,-0.0827 0.230822,-0.14813 0.08957,-0.0655 0.141248,-0.0655 0.02413,0 0.04134,0.0103 0.01722,0.0104 0.02756,0.0413 0.01035,0.0276 0.01378,0.0792 0.0069,0.0517 0.0069,0.13092 z" />
    <path
       inkscape:connector-curvature="0"
       id="path40"
       style="font-style:normal;font-variant:normal;font-weight:normal;font-stretch:normal;font-size:26.66666794px;line-height:1.25;font-family:Calibri;-inkscape-font-specification:Calibri;letter-spacing:0px;word-spacing:0px;fill:#000000;fill-opacity:1;stroke:none;stroke-width:0.26458332"
       d="m 95.272677,134.61912 q 0,0.0276 -0.01378,0.0482 -0.01378,0.0172 -0.04823,0.031 -0.03445,0.0138 -0.09302,0.0207 -0.05512,0.007 -0.141247,0.007 -0.08268,0 -0.141251,-0.007 -0.05857,-0.007 -0.09302,-0.0207 -0.03101,-0.0138 -0.04479,-0.031 -0.01378,-0.0207 -0.01378,-0.0482 v -2.92489 q 0,-0.1068 0.0034,-0.22049 0.0034,-0.11713 0.01035,-0.21015 h -0.0069 q -0.02756,0.0482 -0.06201,0.10336 -0.031,0.0551 -0.0689,0.11713 -0.0379,0.0586 -0.07579,0.12058 -0.0379,0.0586 -0.07579,0.11713 l -1.929255,2.90077 q -0.02066,0.0276 -0.04134,0.0482 -0.02066,0.0207 -0.05512,0.0344 -0.03101,0.0103 -0.07579,0.0138 -0.04479,0.007 -0.113689,0.007 -0.07923,0 -0.130913,-0.007 -0.04823,-0.007 -0.07924,-0.0207 -0.02756,-0.0172 -0.04134,-0.0379 -0.01035,-0.0207 -0.01035,-0.0517 v -4.27536 q 0,-0.0241 0.01378,-0.0448 0.01723,-0.0207 0.05168,-0.0344 0.0379,-0.0138 0.09302,-0.0207 0.05857,-0.007 0.137802,-0.007 0.08613,0 0.141251,0.007 0.05857,0.007 0.09302,0.0207 0.03445,0.0138 0.04823,0.0344 0.01378,0.0207 0.01378,0.0448 v 2.94211 q 0,0.093 -0.0034,0.19982 0,0.10679 -0.01035,0.2067 h 0.0069 q 0.05512,-0.0861 0.127468,-0.2067 0.07579,-0.12403 0.158475,-0.2446 l 1.925809,-2.90422 q 0.01722,-0.0241 0.0379,-0.0413 0.02066,-0.0207 0.05168,-0.031 0.03445,-0.0138 0.07924,-0.0207 0.04479,-0.007 0.113689,-0.007 0.07924,0 0.127468,0.007 0.05168,0.007 0.07924,0.0241 0.031,0.0138 0.04134,0.0345 0.01378,0.0172 0.01378,0.0482 z" />
    <path
       inkscape:connector-curvature="0"
       id="path42"
       style="font-style:normal;font-variant:normal;font-weight:normal;font-stretch:normal;font-size:26.66666794px;line-height:1.25;font-family:Calibri;-inkscape-font-specification:Calibri;letter-spacing:0px;word-spacing:0px;fill:#000000;fill-opacity:1;stroke:none;stroke-width:0.26458332"
       d="m 99.403346,133.37888 q 0,0.25838 -0.08268,0.49954 -0.07924,0.23771 -0.261829,0.4203 -0.179144,0.18259 -0.478867,0.29628 -0.299725,0.11024 -0.816488,0.11024 h -1.07487 q -0.08268,0 -0.151585,-0.0517 -0.0689,-0.0551 -0.0689,-0.19293 v -3.97219 q 0,-0.13436 0.0689,-0.18604 0.0689,-0.0551 0.14814,-0.0551 h 2.31166 q 0.03101,0 0.05512,0.0138 0.0241,0.0138 0.0379,0.0448 0.01722,0.031 0.0241,0.0792 0.0069,0.0448 0.0069,0.11369 0,0.062 -0.0069,0.11024 -0.0069,0.0482 -0.0241,0.0792 -0.01378,0.0276 -0.0379,0.0448 -0.02066,0.0138 -0.05168,0.0138 h -1.943034 v 1.39526 h 0.816488 q 0.420301,0 0.692462,0.0861 0.272164,0.0861 0.458198,0.24805 0.186036,0.16192 0.282498,0.39273 0.09646,0.22738 0.09646,0.50988 z m -0.613227,0.0413 q 0,-0.18603 -0.06201,-0.33417 -0.05857,-0.14814 -0.172254,-0.25149 -0.113689,-0.10336 -0.289388,-0.15848 -0.1757,-0.0586 -0.465088,-0.0586 h -0.74414 v 1.60541 h 0.761365 q 0.275608,0 0.451307,-0.0551 0.1757,-0.0551 0.285944,-0.15848 0.113688,-0.10679 0.172254,-0.25493 0.06201,-0.14814 0.06201,-0.33418 z" />
    <path
       inkscape:connector-curvature="0"
       id="path44"
       style="font-style:normal;font-variant:normal;font-weight:normal;font-stretch:normal;font-size:26.66666794px;line-height:1.25;font-family:Calibri;-inkscape-font-specification:Calibri;letter-spacing:0px;word-spacing:0px;fill:#000000;fill-opacity:1;stroke:none;stroke-width:0.26458332"
       d="m 103.59603,134.61912 q 0,0.0276 -0.0138,0.0482 -0.0138,0.0172 -0.0482,0.031 -0.0344,0.0138 -0.093,0.0207 -0.0551,0.007 -0.14125,0.007 -0.0827,0 -0.14125,-0.007 -0.0586,-0.007 -0.093,-0.0207 -0.031,-0.0138 -0.0448,-0.031 -0.0138,-0.0207 -0.0138,-0.0482 v -2.92489 q 0,-0.1068 0.003,-0.22049 0.003,-0.11713 0.0104,-0.21015 h -0.007 q -0.0276,0.0482 -0.062,0.10336 -0.031,0.0551 -0.0689,0.11713 -0.0379,0.0586 -0.0758,0.12058 -0.0379,0.0586 -0.0758,0.11713 l -1.92926,2.90077 q -0.0207,0.0276 -0.0413,0.0482 -0.0207,0.0207 -0.0551,0.0344 -0.031,0.0103 -0.0758,0.0138 -0.0448,0.007 -0.11369,0.007 -0.0792,0 -0.13091,-0.007 -0.0482,-0.007 -0.0792,-0.0207 -0.0276,-0.0172 -0.0413,-0.0379 -0.0104,-0.0207 -0.0104,-0.0517 v -4.27536 q 0,-0.0241 0.0138,-0.0448 0.0172,-0.0207 0.0517,-0.0344 0.0379,-0.0138 0.093,-0.0207 0.0586,-0.007 0.13781,-0.007 0.0861,0 0.14124,0.007 0.0586,0.007 0.093,0.0207 0.0345,0.0138 0.0482,0.0344 0.0138,0.0207 0.0138,0.0448 v 2.94211 q 0,0.093 -0.003,0.19982 0,0.10679 -0.0104,0.2067 h 0.007 q 0.0551,-0.0861 0.12747,-0.2067 0.0758,-0.12403 0.15848,-0.2446 l 1.9258,-2.90422 q 0.0172,-0.0241 0.0379,-0.0413 0.0207,-0.0207 0.0517,-0.031 0.0344,-0.0138 0.0792,-0.0207 0.0448,-0.007 0.11368,-0.007 0.0792,0 0.12747,0.007 0.0517,0.007 0.0792,0.0241 0.031,0.0138 0.0413,0.0345 0.0138,0.0172 0.0138,0.0482 z" />
    <path
       inkscape:connector-curvature="0"
       id="path46"
       style="font-style:normal;font-variant:normal;font-weight:normal;font-stretch:normal;font-size:26.66666794px;line-height:1.25;font-family:Calibri;-inkscape-font-specification:Calibri;letter-spacing:0px;word-spacing:0px;fill:#000000;fill-opacity:1;stroke:none;stroke-width:0.26458332"
       d="m 107.52688,131.55298 q 0,0.33417 -0.11024,0.60289 -0.11024,0.26872 -0.31695,0.4582 -0.20326,0.18948 -0.50298,0.29283 -0.29628,0.10336 -0.70969,0.10336 h -0.50643 v 1.60541 q 0,0.0276 -0.0172,0.0482 -0.0138,0.0207 -0.0482,0.0344 -0.031,0.0103 -0.0896,0.0172 -0.0551,0.0103 -0.14125,0.0103 -0.0861,0 -0.14469,-0.0103 -0.0551,-0.007 -0.0896,-0.0172 -0.0345,-0.0138 -0.0482,-0.0344 -0.0138,-0.0207 -0.0138,-0.0482 v -4.11344 q 0,-0.13781 0.0723,-0.19637 0.0724,-0.0586 0.16192,-0.0586 h 0.9543 q 0.14469,0 0.2756,0.0138 0.13436,0.0103 0.31351,0.0517 0.18259,0.0379 0.36862,0.14814 0.18948,0.1068 0.3204,0.26527 0.13091,0.15848 0.19981,0.36863 0.0724,0.2067 0.0724,0.4582 z m -0.62356,0.0482 q 0,-0.27216 -0.10335,-0.45475 -0.0999,-0.18259 -0.2515,-0.27216 -0.14813,-0.0896 -0.31005,-0.11369 -0.15848,-0.0241 -0.31006,-0.0241 h -0.54777 v 1.78801 h 0.53399 q 0.26872,0 0.44442,-0.0689 0.17914,-0.0689 0.29972,-0.18948 0.12058,-0.12403 0.18259,-0.29284 0.062,-0.17225 0.062,-0.37207 z" />
    <path
       inkscape:connector-curvature="0"
       id="path48"
       style="font-style:normal;font-variant:normal;font-weight:normal;font-stretch:normal;font-size:26.66666794px;line-height:1.25;font-family:Calibri;-inkscape-font-specification:Calibri;letter-spacing:0px;word-spacing:0px;fill:#000000;fill-opacity:1;stroke:none;stroke-width:0.26458332"
       d="m 111.4164,134.07479 q 0,0.0551 -0.003,0.0965 -0.003,0.0414 -0.0138,0.0724 -0.007,0.031 -0.0207,0.0551 -0.0138,0.0241 -0.0482,0.0586 -0.0345,0.0344 -0.1447,0.1068 -0.11024,0.0689 -0.27561,0.1378 -0.16191,0.0655 -0.37551,0.11024 -0.21015,0.0482 -0.46165,0.0482 -0.43408,0 -0.78548,-0.1447 -0.34795,-0.14469 -0.596,-0.42719 -0.2446,-0.2825 -0.37896,-0.69591 -0.13091,-0.41686 -0.13091,-0.95774 0,-0.55466 0.14125,-0.98874 0.14469,-0.43408 0.40307,-0.73381 0.25839,-0.30316 0.61668,-0.46164 0.36173,-0.15847 0.79926,-0.15847 0.19292,0 0.37551,0.0379 0.18259,0.0344 0.33762,0.0896 0.15503,0.0551 0.27561,0.12747 0.12058,0.0723 0.16536,0.12057 0.0482,0.0448 0.062,0.0689 0.0138,0.0241 0.0207,0.0586 0.0103,0.031 0.0138,0.0758 0.007,0.0448 0.007,0.1068 0,0.0689 -0.007,0.11714 -0.007,0.0482 -0.0207,0.0827 -0.0138,0.031 -0.0344,0.0482 -0.0172,0.0138 -0.0448,0.0138 -0.0482,0 -0.13436,-0.0654 -0.0861,-0.0689 -0.22393,-0.14814 -0.13436,-0.0827 -0.33073,-0.14814 -0.19292,-0.0689 -0.46508,-0.0689 -0.29628,0 -0.54088,0.12058 -0.24116,0.11713 -0.41342,0.34795 -0.17225,0.23082 -0.26871,0.565 -0.093,0.33073 -0.093,0.75792 0,0.42374 0.0896,0.75103 0.093,0.32384 0.26183,0.54432 0.17225,0.21704 0.4203,0.33073 0.24805,0.11024 0.56155,0.11024 0.26527,0 0.46164,-0.0654 0.19982,-0.0655 0.33762,-0.1447 0.14125,-0.0827 0.23082,-0.14813 0.0896,-0.0655 0.14125,-0.0655 0.0241,0 0.0413,0.0103 0.0172,0.0104 0.0276,0.0413 0.0104,0.0276 0.0138,0.0792 0.007,0.0517 0.007,0.13092 z" />
    <path
       inkscape:connector-curvature="0"
       id="path50"
       style="font-style:normal;font-variant:normal;font-weight:normal;font-stretch:normal;font-size:26.66666794px;line-height:1.25;font-family:Calibri;-inkscape-font-specification:Calibri;letter-spacing:0px;word-spacing:0px;fill:#000000;fill-opacity:1;stroke:none;stroke-width:0.26458332"
       d="m 115.1681,134.61222 q 0,0.031 -0.0138,0.0517 -0.0138,0.0207 -0.0482,0.0344 -0.031,0.0138 -0.0896,0.0207 -0.0586,0.007 -0.1447,0.007 -0.0999,0 -0.16192,-0.0103 -0.0586,-0.007 -0.0965,-0.0241 -0.0344,-0.0172 -0.0551,-0.0413 -0.0172,-0.0276 -0.0276,-0.0655 l -0.40997,-1.08865 q -0.0827,-0.22048 -0.18259,-0.37551 -0.0999,-0.15503 -0.23082,-0.25494 -0.12747,-0.10335 -0.29283,-0.15159 -0.16537,-0.0482 -0.37207,-0.0482 h -0.24805 v 1.94993 q 0,0.0276 -0.0138,0.0482 -0.0138,0.0207 -0.0482,0.0344 -0.0345,0.0103 -0.093,0.0172 -0.0551,0.0103 -0.14124,0.0103 -0.0827,0 -0.14125,-0.0103 -0.0586,-0.007 -0.093,-0.0172 -0.0345,-0.0138 -0.0482,-0.0344 -0.0138,-0.0207 -0.0138,-0.0482 v -4.28225 q 0,-0.0241 0.0138,-0.0448 0.0138,-0.0207 0.0482,-0.031 0.0345,-0.0138 0.093,-0.0207 0.0586,-0.0103 0.14125,-0.0103 0.0861,0 0.14124,0.0103 0.0586,0.007 0.093,0.0207 0.0344,0.0104 0.0482,0.031 0.0138,0.0207 0.0138,0.0448 v 1.82245 h 0.24805 q 0.2067,0 0.36173,-0.0482 0.15503,-0.0517 0.27216,-0.15159 0.12058,-0.0999 0.21015,-0.25149 0.093,-0.15503 0.16537,-0.36518 l 0.33762,-0.97151 q 0.0104,-0.0344 0.0276,-0.062 0.0172,-0.0276 0.0517,-0.0448 0.0345,-0.0172 0.093,-0.0241 0.062,-0.0103 0.15848,-0.0103 0.0896,0 0.14469,0.007 0.0551,0.007 0.0861,0.0207 0.0345,0.0138 0.0448,0.0344 0.0103,0.0207 0.0103,0.0482 0,0.0379 -0.0138,0.0861 -0.0104,0.0448 -0.031,0.1068 l -0.35484,0.92673 q -0.0758,0.21015 -0.15848,0.36174 -0.0792,0.15158 -0.1757,0.26183 -0.0965,0.10679 -0.21015,0.17914 -0.11369,0.0689 -0.25494,0.11024 v 0.007 q 0.16192,0.0586 0.28595,0.13781 0.12747,0.0758 0.23426,0.18948 0.1068,0.11369 0.19637,0.27561 0.0896,0.15847 0.1757,0.3824 l 0.4203,1.06109 q 0.0345,0.0896 0.0413,0.12747 0.007,0.0345 0.007,0.062 z" />
    <path
       inkscape:connector-curvature="0"
       id="path52"
       style="font-style:normal;font-variant:normal;font-weight:normal;font-stretch:normal;font-size:26.66666794px;line-height:1.25;font-family:Calibri;-inkscape-font-specification:Calibri;letter-spacing:0px;word-spacing:0px;fill:#000000;fill-opacity:1;stroke:none;stroke-width:0.26458332"
       d="m 119.37457,134.61912 q 0,0.0276 -0.0138,0.0482 -0.0138,0.0172 -0.0482,0.031 -0.0345,0.0138 -0.093,0.0207 -0.0551,0.007 -0.14124,0.007 -0.0827,0 -0.14125,-0.007 -0.0586,-0.007 -0.093,-0.0207 -0.031,-0.0138 -0.0448,-0.031 -0.0138,-0.0207 -0.0138,-0.0482 v -2.92489 q 0,-0.1068 0.003,-0.22049 0.003,-0.11713 0.0103,-0.21015 h -0.007 q -0.0276,0.0482 -0.062,0.10336 -0.031,0.0551 -0.0689,0.11713 -0.0379,0.0586 -0.0758,0.12058 -0.0379,0.0586 -0.0758,0.11713 l -1.92926,2.90077 q -0.0207,0.0276 -0.0413,0.0482 -0.0207,0.0207 -0.0551,0.0344 -0.031,0.0103 -0.0758,0.0138 -0.0448,0.007 -0.11369,0.007 -0.0792,0 -0.13091,-0.007 -0.0482,-0.007 -0.0792,-0.0207 -0.0276,-0.0172 -0.0413,-0.0379 -0.0104,-0.0207 -0.0104,-0.0517 v -4.27536 q 0,-0.0241 0.0138,-0.0448 0.0172,-0.0207 0.0517,-0.0344 0.0379,-0.0138 0.093,-0.0207 0.0586,-0.007 0.1378,-0.007 0.0861,0 0.14125,0.007 0.0586,0.007 0.093,0.0207 0.0344,0.0138 0.0482,0.0344 0.0138,0.0207 0.0138,0.0448 v 2.94211 q 0,0.093 -0.003,0.19982 0,0.10679 -0.0104,0.2067 h 0.007 q 0.0551,-0.0861 0.12747,-0.2067 0.0758,-0.12403 0.15848,-0.2446 l 1.9258,-2.90422 q 0.0172,-0.0241 0.0379,-0.0413 0.0207,-0.0207 0.0517,-0.031 0.0345,-0.0138 0.0792,-0.0207 0.0448,-0.007 0.11369,-0.007 0.0792,0 0.12747,0.007 0.0517,0.007 0.0792,0.0241 0.031,0.0138 0.0413,0.0345 0.0138,0.0172 0.0138,0.0482 z" />
    <path
       inkscape:connector-curvature="0"
       id="path54"
       style="font-style:normal;font-variant:normal;font-weight:normal;font-stretch:normal;font-size:26.66666794px;line-height:1.25;font-family:Calibri;-inkscape-font-specification:Calibri;letter-spacing:0px;word-spacing:0px;fill:#000000;fill-opacity:1;stroke:none;stroke-width:0.26458332"
       d="m 123.90831,134.61912 q 0,0.0276 -0.0138,0.0482 -0.0138,0.0172 -0.0482,0.031 -0.0344,0.0138 -0.093,0.0207 -0.0551,0.007 -0.14125,0.007 -0.0827,0 -0.14125,-0.007 -0.0586,-0.007 -0.093,-0.0207 -0.031,-0.0138 -0.0448,-0.031 -0.0138,-0.0207 -0.0138,-0.0482 v -2.92489 q 0,-0.1068 0.003,-0.22049 0.003,-0.11713 0.0104,-0.21015 h -0.007 q -0.0276,0.0482 -0.062,0.10336 -0.031,0.0551 -0.0689,0.11713 -0.0379,0.0586 -0.0758,0.12058 -0.0379,0.0586 -0.0758,0.11713 l -1.92925,2.90077 q -0.0207,0.0276 -0.0414,0.0482 -0.0207,0.0207 -0.0551,0.0344 -0.031,0.0103 -0.0758,0.0138 -0.0448,0.007 -0.11369,0.007 -0.0792,0 -0.13091,-0.007 -0.0482,-0.007 -0.0792,-0.0207 -0.0276,-0.0172 -0.0413,-0.0379 -0.0103,-0.0207 -0.0103,-0.0517 v -4.27536 q 0,-0.0241 0.0138,-0.0448 0.0172,-0.0207 0.0517,-0.0344 0.0379,-0.0138 0.093,-0.0207 0.0586,-0.007 0.1378,-0.007 0.0861,0 0.14125,0.007 0.0586,0.007 0.093,0.0207 0.0344,0.0138 0.0482,0.0344 0.0138,0.0207 0.0138,0.0448 v 2.94211 q 0,0.093 -0.003,0.19982 0,0.10679 -0.0103,0.2067 h 0.007 q 0.0551,-0.0861 0.12746,-0.2067 0.0758,-0.12403 0.15848,-0.2446 l 1.92581,-2.90422 q 0.0172,-0.0241 0.0379,-0.0413 0.0207,-0.0207 0.0517,-0.031 0.0344,-0.0138 0.0792,-0.0207 0.0448,-0.007 0.11369,-0.007 0.0792,0 0.12746,0.007 0.0517,0.007 0.0792,0.0241 0.031,0.0138 0.0413,0.0345 0.0138,0.0172 0.0138,0.0482 z m -0.57533,-5.52938 q 0,0.1757 -0.0586,0.33762 -0.0586,0.16192 -0.18604,0.28594 -0.12747,0.12058 -0.32728,0.19637 -0.19982,0.0724 -0.48576,0.0724 -0.26183,0 -0.46165,-0.062 -0.19637,-0.0655 -0.33072,-0.1826 -0.13092,-0.12057 -0.19982,-0.28249 -0.0655,-0.16537 -0.0655,-0.36518 0,-0.0344 0.0103,-0.0586 0.0138,-0.0241 0.0448,-0.0379 0.0345,-0.0138 0.0861,-0.0207 0.0551,-0.007 0.13092,-0.007 0.0827,0 0.13091,0.0103 0.0482,0.007 0.0724,0.0241 0.0276,0.0172 0.0345,0.0448 0.0103,0.0276 0.0103,0.0654 0,0.0861 0.0344,0.16881 0.0345,0.0827 0.10336,0.14814 0.0723,0.062 0.17225,0.0999 0.0999,0.0379 0.23083,0.0379 0.12746,0 0.22393,-0.0379 0.0999,-0.0379 0.16881,-0.0999 0.0689,-0.0654 0.10335,-0.14814 0.0344,-0.0861 0.0344,-0.18259 0,-0.031 0.007,-0.0551 0.0103,-0.0276 0.0344,-0.0413 0.0276,-0.0172 0.0723,-0.0241 0.0482,-0.0103 0.12747,-0.0103 0.0827,0 0.13436,0.007 0.0551,0.007 0.0861,0.0207 0.0345,0.0138 0.0482,0.0379 0.0138,0.0241 0.0138,0.0586 z m -2.57004,1.15755 z" />
    <path
       inkscape:connector-curvature="0"
       id="path56"
       style="font-style:normal;font-variant:normal;font-weight:normal;font-stretch:normal;font-size:26.66666794px;line-height:1.25;font-family:Calibri;-inkscape-font-specification:Calibri;letter-spacing:0px;word-spacing:0px;fill:#000000;fill-opacity:1;stroke:none;stroke-width:0.26458332"
       d="m 129.43769,131.55298 q 0,0.33417 -0.11024,0.60289 -0.11025,0.26872 -0.31695,0.4582 -0.20326,0.18948 -0.50298,0.29283 -0.29629,0.10336 -0.7097,0.10336 h -0.50642 v 1.60541 q 0,0.0276 -0.0172,0.0482 -0.0138,0.0207 -0.0482,0.0344 -0.031,0.0103 -0.0896,0.0172 -0.0551,0.0103 -0.14125,0.0103 -0.0861,0 -0.1447,-0.0103 -0.0551,-0.007 -0.0896,-0.0172 -0.0345,-0.0138 -0.0482,-0.0344 -0.0138,-0.0207 -0.0138,-0.0482 v -4.11344 q 0,-0.13781 0.0724,-0.19637 0.0724,-0.0586 0.16192,-0.0586 h 0.95429 q 0.1447,0 0.27561,0.0138 0.13436,0.0103 0.3135,0.0517 0.18259,0.0379 0.36863,0.14814 0.18948,0.1068 0.32039,0.26527 0.13092,0.15848 0.19982,0.36863 0.0723,0.2067 0.0723,0.4582 z m -0.62356,0.0482 q 0,-0.27216 -0.10335,-0.45475 -0.0999,-0.18259 -0.2515,-0.27216 -0.14814,-0.0896 -0.31006,-0.11369 -0.15847,-0.0241 -0.31006,-0.0241 h -0.54776 v 1.78801 h 0.53399 q 0.26871,0 0.44441,-0.0689 0.17915,-0.0689 0.29973,-0.18948 0.12057,-0.12403 0.18259,-0.29284 0.062,-0.17225 0.062,-0.37207 z" />
    <path
       inkscape:connector-curvature="0"
       id="path58"
       style="font-style:normal;font-variant:normal;font-weight:normal;font-stretch:normal;font-size:26.66666794px;line-height:1.25;font-family:Calibri;-inkscape-font-specification:Calibri;letter-spacing:0px;word-spacing:0px;fill:#000000;fill-opacity:1;stroke:none;stroke-width:0.26458332"
       d="m 134.08513,132.42459 q 0,0.54088 -0.12747,0.97496 -0.12747,0.43408 -0.38241,0.7407 -0.25149,0.30317 -0.63389,0.46853 -0.38241,0.16192 -0.89229,0.16192 -0.50298,0 -0.8716,-0.14814 -0.36519,-0.15158 -0.60634,-0.43753 -0.23771,-0.28594 -0.35485,-0.70969 -0.11713,-0.42374 -0.11713,-0.97496 0,-0.5271 0.12747,-0.95773 0.12747,-0.43064 0.3824,-0.73037 0.25494,-0.30316 0.63735,-0.46508 0.3824,-0.16537 0.89228,-0.16537 0.49265,0 0.85783,0.14814 0.36518,0.14814 0.60633,0.43408 0.24461,0.2825 0.36174,0.7028 0.12058,0.41686 0.12058,0.95774 z m -0.62356,0.0413 q 0,-0.37896 -0.0689,-0.7028 -0.0655,-0.32728 -0.22393,-0.56499 -0.15503,-0.24116 -0.41686,-0.37552 -0.26182,-0.13436 -0.64767,-0.13436 -0.38585,0 -0.64768,0.1447 -0.26183,0.14469 -0.42719,0.38585 -0.16192,0.24115 -0.23427,0.56499 -0.0689,0.3204 -0.0689,0.67524 0,0.39274 0.0655,0.72347 0.0654,0.33073 0.22048,0.57189 0.15503,0.23771 0.41341,0.37207 0.26183,0.13091 0.65457,0.13091 0.3893,0 0.65457,-0.14469 0.26527,-0.1447 0.42719,-0.3893 0.16192,-0.24805 0.23082,-0.57188 0.0689,-0.32384 0.0689,-0.68558 z" />
    <path
       inkscape:connector-curvature="0"
       id="path60"
       style="font-style:normal;font-variant:normal;font-weight:normal;font-stretch:normal;font-size:26.66666794px;line-height:1.25;font-family:Calibri;-inkscape-font-specification:Calibri;letter-spacing:0px;word-spacing:0px;fill:#000000;fill-opacity:1;stroke:none;stroke-width:0.26458332"
       d="m 138.63954,135.79045 q 0,0.0276 -0.0103,0.0448 -0.0103,0.0172 -0.0413,0.0276 -0.0276,0.0103 -0.0758,0.0172 -0.0482,0.007 -0.13091,0.007 -0.0689,0 -0.11713,-0.007 -0.0482,-0.007 -0.0792,-0.0172 -0.0276,-0.0103 -0.0413,-0.0276 -0.0103,-0.0172 -0.0103,-0.0448 v -1.08521 h -3.35552 v 1.08521 q 0,0.0276 -0.0138,0.0448 -0.0103,0.0172 -0.0413,0.0276 -0.0276,0.0103 -0.0758,0.0172 -0.0482,0.007 -0.12058,0.007 -0.0792,0 -0.12747,-0.007 -0.0482,-0.007 -0.0792,-0.0172 -0.0276,-0.0103 -0.0413,-0.0276 -0.0103,-0.0172 -0.0103,-0.0448 v -1.41593 q -0.007,-0.0896 0.0276,-0.13092 0.0344,-0.0413 0.1068,-0.0413 h 0.25838 q 0.0965,-0.12403 0.17914,-0.25149 0.0827,-0.13092 0.15848,-0.30662 0.0758,-0.1757 0.14814,-0.42719 0.0723,-0.25149 0.14125,-0.62011 0.0723,-0.37207 0.14469,-0.8854 0.0724,-0.51331 0.15158,-1.21956 0.0207,-0.12402 0.0689,-0.18259 0.0517,-0.062 0.1447,-0.062 h 2.05672 q 0.093,0 0.14814,0.062 0.0586,0.0586 0.0586,0.17915 v 3.71381 h 0.44442 q 0.0723,0 0.10335,0.0448 0.031,0.0413 0.031,0.13091 z m -1.17133,-5.03673 h -1.32292 q -0.0724,0.63734 -0.14469,1.11276 -0.0689,0.47543 -0.13781,0.82683 -0.0654,0.3514 -0.13436,0.596 -0.0689,0.24116 -0.14124,0.41341 -0.0689,0.16881 -0.1447,0.28594 -0.0723,0.11714 -0.15158,0.2136 h 2.1773 z" />
    <path
       inkscape:connector-curvature="0"
       id="path62"
       style="font-style:normal;font-variant:normal;font-weight:normal;font-stretch:normal;font-size:26.66666794px;line-height:1.25;font-family:Calibri;-inkscape-font-specification:Calibri;letter-spacing:0px;word-spacing:0px;fill:#000000;fill-opacity:1;stroke:none;stroke-width:0.26458332"
       d="m 142.6014,134.61567 q 0,0.0276 -0.0138,0.0482 -0.0138,0.0207 -0.0482,0.0344 -0.0345,0.0103 -0.093,0.0172 -0.0551,0.0103 -0.1378,0.0103 -0.0896,0 -0.1447,-0.0103 -0.0551,-0.007 -0.0896,-0.0172 -0.0344,-0.0138 -0.0482,-0.0344 -0.0138,-0.0207 -0.0138,-0.0482 v -1.97748 h -2.02916 v 1.97748 q 0,0.0276 -0.0138,0.0482 -0.0138,0.0207 -0.0482,0.0344 -0.0345,0.0103 -0.093,0.0172 -0.0551,0.0103 -0.14125,0.0103 -0.0827,0 -0.14125,-0.0103 -0.0586,-0.007 -0.093,-0.0172 -0.0345,-0.0138 -0.0482,-0.0344 -0.0138,-0.0207 -0.0138,-0.0482 v -4.27881 q 0,-0.0276 0.0138,-0.0482 0.0138,-0.0207 0.0482,-0.031 0.0344,-0.0138 0.093,-0.0207 0.0586,-0.0103 0.14125,-0.0103 0.0861,0 0.14125,0.0103 0.0586,0.007 0.093,0.0207 0.0344,0.0103 0.0482,0.031 0.0138,0.0207 0.0138,0.0482 v 1.78456 h 2.02916 v -1.78456 q 0,-0.0276 0.0138,-0.0482 0.0138,-0.0207 0.0482,-0.031 0.0344,-0.0138 0.0896,-0.0207 0.0551,-0.0103 0.1447,-0.0103 0.0827,0 0.1378,0.0103 0.0586,0.007 0.093,0.0207 0.0344,0.0103 0.0482,0.031 0.0138,0.0207 0.0138,0.0482 z" />
    <path
       inkscape:connector-curvature="0"
       id="path64"
       style="font-style:normal;font-variant:normal;font-weight:normal;font-stretch:normal;font-size:26.66666794px;line-height:1.25;font-family:Calibri;-inkscape-font-specification:Calibri;letter-spacing:0px;word-spacing:0px;fill:#000000;fill-opacity:1;stroke:none;stroke-width:0.26458332"
       d="m 147.12826,134.61912 q 0,0.0276 -0.0138,0.0482 -0.0138,0.0172 -0.0482,0.031 -0.0344,0.0138 -0.093,0.0207 -0.0551,0.007 -0.14125,0.007 -0.0827,0 -0.14124,-0.007 -0.0586,-0.007 -0.093,-0.0207 -0.031,-0.0138 -0.0448,-0.031 -0.0138,-0.0207 -0.0138,-0.0482 v -2.92489 q 0,-0.1068 0.003,-0.22049 0.003,-0.11713 0.0103,-0.21015 h -0.007 q -0.0276,0.0482 -0.062,0.10336 -0.031,0.0551 -0.0689,0.11713 -0.0379,0.0586 -0.0758,0.12058 -0.0379,0.0586 -0.0758,0.11713 l -1.92925,2.90077 q -0.0207,0.0276 -0.0413,0.0482 -0.0207,0.0207 -0.0551,0.0344 -0.031,0.0103 -0.0758,0.0138 -0.0448,0.007 -0.11369,0.007 -0.0792,0 -0.13092,-0.007 -0.0482,-0.007 -0.0792,-0.0207 -0.0276,-0.0172 -0.0413,-0.0379 -0.0103,-0.0207 -0.0103,-0.0517 v -4.27536 q 0,-0.0241 0.0138,-0.0448 0.0172,-0.0207 0.0517,-0.0344 0.0379,-0.0138 0.093,-0.0207 0.0586,-0.007 0.1378,-0.007 0.0861,0 0.14125,0.007 0.0586,0.007 0.093,0.0207 0.0344,0.0138 0.0482,0.0344 0.0138,0.0207 0.0138,0.0448 v 2.94211 q 0,0.093 -0.003,0.19982 0,0.10679 -0.0103,0.2067 h 0.007 q 0.0551,-0.0861 0.12747,-0.2067 0.0758,-0.12403 0.15847,-0.2446 l 1.92581,-2.90422 q 0.0172,-0.0241 0.0379,-0.0413 0.0207,-0.0207 0.0517,-0.031 0.0345,-0.0138 0.0792,-0.0207 0.0448,-0.007 0.11369,-0.007 0.0792,0 0.12747,0.007 0.0517,0.007 0.0792,0.0241 0.031,0.0138 0.0413,0.0345 0.0138,0.0172 0.0138,0.0482 z" />
    <path
       inkscape:connector-curvature="0"
       id="path66"
       style="font-style:normal;font-variant:normal;font-weight:normal;font-stretch:normal;font-size:26.66666794px;line-height:1.25;font-family:Calibri;-inkscape-font-specification:Calibri;letter-spacing:0px;word-spacing:0px;fill:#000000;fill-opacity:1;stroke:none;stroke-width:0.26458332"
       d="m 151.28649,134.61222 q 0,0.031 -0.0138,0.0517 -0.0138,0.0207 -0.0482,0.0344 -0.031,0.0138 -0.0896,0.0207 -0.0586,0.007 -0.14469,0.007 -0.0999,0 -0.16192,-0.0103 -0.0586,-0.007 -0.0965,-0.0241 -0.0344,-0.0172 -0.0551,-0.0413 -0.0172,-0.0276 -0.0276,-0.0655 l -0.40997,-1.08865 q -0.0827,-0.22048 -0.18259,-0.37551 -0.0999,-0.15503 -0.23082,-0.25494 -0.12747,-0.10335 -0.29283,-0.15159 -0.16537,-0.0482 -0.37207,-0.0482 h -0.24805 v 1.94993 q 0,0.0276 -0.0138,0.0482 -0.0138,0.0207 -0.0482,0.0344 -0.0345,0.0103 -0.093,0.0172 -0.0551,0.0103 -0.14125,0.0103 -0.0827,0 -0.14125,-0.0103 -0.0586,-0.007 -0.093,-0.0172 -0.0344,-0.0138 -0.0482,-0.0344 -0.0138,-0.0207 -0.0138,-0.0482 v -4.28225 q 0,-0.0241 0.0138,-0.0448 0.0138,-0.0207 0.0482,-0.031 0.0344,-0.0138 0.093,-0.0207 0.0586,-0.0103 0.14125,-0.0103 0.0861,0 0.14125,0.0103 0.0586,0.007 0.093,0.0207 0.0345,0.0104 0.0482,0.031 0.0138,0.0207 0.0138,0.0448 v 1.82245 h 0.24805 q 0.2067,0 0.36173,-0.0482 0.15503,-0.0517 0.27217,-0.15159 0.12057,-0.0999 0.21015,-0.25149 0.093,-0.15503 0.16536,-0.36518 l 0.33762,-0.97151 q 0.0103,-0.0344 0.0276,-0.062 0.0172,-0.0276 0.0517,-0.0448 0.0344,-0.0172 0.093,-0.0241 0.062,-0.0103 0.15847,-0.0103 0.0896,0 0.14469,0.007 0.0551,0.007 0.0861,0.0207 0.0345,0.0138 0.0448,0.0344 0.0103,0.0207 0.0103,0.0482 0,0.0379 -0.0138,0.0861 -0.0104,0.0448 -0.031,0.1068 l -0.35485,0.92673 q -0.0758,0.21015 -0.15847,0.36174 -0.0792,0.15158 -0.1757,0.26183 -0.0965,0.10679 -0.21015,0.17914 -0.11369,0.0689 -0.25494,0.11024 v 0.007 q 0.16192,0.0586 0.28594,0.13781 0.12747,0.0758 0.23427,0.18948 0.1068,0.11369 0.19637,0.27561 0.0896,0.15847 0.1757,0.3824 l 0.4203,1.06109 q 0.0344,0.0896 0.0413,0.12747 0.007,0.0345 0.007,0.062 z" />
    <path
       inkscape:connector-curvature="0"
       id="path68"
       style="font-style:normal;font-variant:normal;font-weight:normal;font-stretch:normal;font-size:26.66666794px;line-height:1.25;font-family:Calibri;-inkscape-font-specification:Calibri;letter-spacing:0px;word-spacing:0px;fill:#000000;fill-opacity:1;stroke:none;stroke-width:0.26458332"
       d="m 153.96677,134.26772 q -0.0172,0.0276 -0.0379,0.0448 -0.0172,0.0172 -0.0482,0.0276 -0.0276,0.0104 -0.0758,0.0138 -0.0482,0.003 -0.12402,0.003 -0.0861,0 -0.13781,-0.0104 -0.0517,-0.0103 -0.0792,-0.031 -0.0241,-0.0207 -0.0241,-0.0482 0.003,-0.0276 0.0241,-0.062 l 0.73381,-1.28847 -0.73725,-1.28502 q -0.0207,-0.0344 -0.0241,-0.062 0,-0.031 0.0241,-0.0517 0.0241,-0.0241 0.0758,-0.0344 0.0517,-0.0104 0.1378,-0.0104 0.0758,0 0.12058,0.003 0.0482,0.003 0.0792,0.0138 0.031,0.0103 0.0482,0.0276 0.0172,0.0172 0.0379,0.0448 l 0.75792,1.21611 q 0.0482,0.0792 0.0482,0.14814 0,0.0689 -0.0517,0.14814 z m -1.26091,-0.0655 q -0.0172,0.0276 -0.0344,0.0448 -0.0172,0.0172 -0.0482,0.0276 -0.031,0.007 -0.0792,0.0103 -0.0482,0.003 -0.12747,0.003 -0.0896,0 -0.14469,-0.007 -0.0517,-0.0103 -0.0792,-0.0276 -0.0241,-0.0207 -0.0241,-0.0448 0,-0.0276 0.0241,-0.062 l 0.7407,-1.22301 -0.75792,-1.24368 q -0.0207,-0.0344 -0.0207,-0.0586 0,-0.0241 0.0241,-0.0413 0.0276,-0.0172 0.0792,-0.0276 0.0551,-0.0103 0.1447,-0.0103 0.0758,0 0.12402,0.003 0.0517,0.003 0.0792,0.0138 0.031,0.0103 0.0482,0.0276 0.0207,0.0138 0.0379,0.0413 l 0.75447,1.15755 q 0.0482,0.0724 0.0482,0.14125 0,0.0655 -0.0517,0.14125 z" />
  </g>
</svg>
